<svg id="Layer_1" xmlns="http://www.w3.org/2000/svg" width="140" height="60" viewBox="0 0 140 60"><style>.st0{fill:#FFFFFF;} .st1{fill:#009D48;} .st2{fill:#4D4D4F;} .st3{fill:#0076BE;} .st4{fill:#919396;}</style><path class="st0" d="M89.5 34.7c-.7.3-1.5.7-2.3 1 .7-.2 1.4-.3 2-.5.3 0 .5.3.5.5-.5 1.4-1.8 1.1-2.8 1.1h-1.1c0 .3 0 .5-.3.5l-.2-.3-.3.3-.3-.3c0 .3 0 .5-.3.5-.3-.3-.5-.3-.8-.3.3.3.5.5 0 .8h-1.1c-.3-.3-.8-1.4-.3-1.4.7-.1 1.2-.2 1.9-.3-.3.1-.7.1-1 .1-.3 0-.5-.3-.8-.3 0 .3 0 .5-.3.5s-.5-.3-.5-.3c-4.9 1.4-9.2 3-13.6 4.9-1.9.8-2.2.9-5.4 2.2-3.8 1.4-4.1 1.5-5.5 2-2.6.9-3.5 1.2-5.6 2C46 49.6 45 50 36.3 53.5c-.3 1.9.5 3.8 2.2 5.2 1.6-.5 3.3-1.4 4.9-1.9 1.7-.5 2.2-.7 3.3-1.1 3-1.1 5.2-1.9 7.9-2.8 3.3-1.4 6-2.7 9.8-3.5 6.2-2.8 13.2-5.4 19.7-7.5 0 0-1.4-2.6-.4-2.8 1.1-.3 1.9-.8 3-1.1 1.1-.5 2.4-.8 3.3-1.6.2.2.4.5.5.7M52 50.5c1.6-.5 3.3-1.1 4.9-1.6C61 47 65.4 45.3 69.4 44c2.4-1.1 5.2-1.9 7.6-2.8 1.6-.5 3.5-1.4 5.2-2.2l.5.5c-4.3 1.6-8.5 3.3-12.8 4.7-4.7 1.4-9 3.8-13.6 5.2-1.1.5-2.4.8-3.5 1.1-2.8 1.1-5.4 2.2-8.2 3 2.2-1.3 4.9-2.2 7.4-3zm31.2-8.7c-4.4 2.2-9 3.3-13.4 5.2-2.8 1.1-5.2 2.2-7.9 2.8-2.4.5-4.3 1.9-6.8 2.4-3.8 1.4-7.6 3-11.4 4.3V56c4.9-2.4 10.4-3.8 15.2-6.2h1.3c.3-.1.5-.2.7-.3 3.3-1.3 6.4-2.8 10-3.8.3 0 .3-.5.5-.5 3.8-1.4 7.6-2.8 11.4-4.1.4-.2.4.4.4.7z"/><path class="st1" d="M5.8 19v1.8c-.8 0-1.2.1-1.4.1-.1.1-.2.3-.2.6v.4h1.5v1.9h-.8v9.7H1.2v-9.7H.5v-1.9h.7c0-.8 0-1.3.1-1.5.1-.3.2-.5.4-.7s.5-.4.9-.4c.4-.3 1-.3 1.8-.3h1.4zm8.7 6.7v2.9c0 1-.1 1.8-.2 2.3-.1.5-.3.9-.7 1.4-.3.4-.8.8-1.3.9-.6.2-1.2.3-1.9.3-.8 0-1.5-.1-2-.3-.6-.2-1-.4-1.3-.8-.3-.3-.5-.8-.7-1.3 0-.3-.1-1.1-.1-2.1v-3c0-1.1.1-1.9.3-2.6.2-.6.7-1.1 1.3-1.5.6-.4 1.4-.6 2.4-.6.8 0 1.5.1 2.1.4.6.2 1 .6 1.3.9.3.4.6.8.7 1.2.1.5.1 1.1.1 1.9zm-3.5-.9c0-.6-.1-1-.1-1.2-.1-.2-.2-.2-.4-.2s-.3.1-.4.2c-.1.2-.1.6-.1 1.2v5.4c0 .6.1.9.1 1.1s.2.3.4.3.3-.1.4-.2c.1-.2.1-.5.1-1v-5.6zm12.9.9v2.9c0 1-.1 1.8-.2 2.3-.1.5-.3.9-.7 1.4-.3.4-.8.8-1.3.9-.6.2-1.2.3-1.9.3-.8 0-1.5-.1-2-.3-.6-.2-1-.4-1.3-.8-.3-.3-.5-.8-.7-1.3-.1-.5-.2-1.3-.2-2.3v-3c0-1.1.1-1.9.3-2.6.2-.6.7-1.1 1.3-1.5.6-.4 1.4-.6 2.4-.6.8 0 1.5.1 2.1.4.6.2 1 .6 1.3.9.3.4.6.8.7 1.2.1.7.2 1.3.2 2.1zm-3.6-.9c0-.6-.1-1-.1-1.2-.1-.2-.2-.2-.4-.2s-.3.1-.4.2c-.1.2-.1.6-.1 1.2v5.4c0 .6.1.9.1 1.1s.2.3.4.3.3-.1.4-.2c.1-.2.1-.5.1-1v-5.6zm13-5.8v14.4h-3.6v-.9c-.3.4-.7.6-1.1.8-.4.2-.8.3-1.2.3-.6 0-1-.2-1.4-.4-.4-.3-.7-.6-.8-1-.1-.4-.2-1-.2-1.9v-5.5c0-.9.1-1.5.2-1.9s.4-.7.8-1c.4-.3.9-.4 1.5-.4.4 0 .8.1 1.2.2.4.2.7.4 1 .7V19h3.6zm-3.7 5.6c0-.4-.1-.7-.1-.9-.1-.2-.2-.2-.4-.2s-.3.1-.4.2c-.1.1-.1.4-.1.9v5.8c0 .5.1.8.1.9.1.2.2.2.4.2s.4-.1.4-.3c.1-.2.1-.6.1-1.3v-5.3z"/><path class="st2" d="M44.2 27.9v2.4l-1 .7 1.3 2.4h-3.4l-.4-.8c-1.1.7-2.2 1.1-3.1 1.1-1 0-1.8-.3-2.4-1-.6-.7-.8-1.5-.8-2.5 0-.8.2-1.4.5-1.8.3-.4.8-.8 1.5-1.1-.9-.7-1.4-1.6-1.4-2.8 0-1 .3-1.8 1-2.4.7-.6 1.6-.9 2.8-.9 1 0 1.9.3 2.5.9.6.6.9 1.4.9 2.3 0 1-.4 1.8-1.1 2.6l1.3 2.3c-.2-.1 1.8-1.4 1.8-1.4zM39.5 31l-1.2-2c-.4.4-.7.8-.7 1.3 0 .3.1.6.2.8s.3.3.6.3.7-.1 1.1-.4zm-.9-5.5c.4-.6.6-1 .6-1.5 0-.2-.1-.4-.2-.6 0-.3-.2-.4-.4-.4s-.3.1-.4.2c-.2.2-.2.4-.2.6 0 .6.2 1.2.6 1.7z"/><path class="st3" d="M56.7 21.6l-1.4 11.8h-3.9c-.2-1.4-.4-3.4-.7-5.7-.1 1-.2 2.1-.4 3.1l-.4 2.6H46l-1.5-11.8h3.1c.1.3.3 2.5.8 6.8.1-.4.3-2.7.8-6.8h3l.7 6.8c.1-2 .4-4.3.8-6.8h3zm3.9 4.6h-3.4v-.8c0-.9.1-1.6.3-2.1.2-.5.6-.9 1.3-1.3.7-.4 1.4-.6 2.5-.6 1.2 0 2.2.2 2.8.7.6.4 1 .9 1.1 1.6.1.6.2 1.9.2 3.9v6h-3.5v-1c-.2.4-.5.7-.8.9-.3.2-.8.3-1.2.3-.6 0-1.2-.2-1.7-.6-.5-.3-.8-1.1-.8-2.3v-1c0-.9.2-1.5.4-1.8.3-.3 1-.7 2-1.1 1.2-.4 1.8-.8 1.9-.9.1-.2.1-.5.1-1 0-.6-.1-1-.1-1.2-.1-.2-.2-.3-.4-.3s-.4.1-.4.2c-.1.2-.1.6-.1 1.2l-.2 1.2zm1.1 1.6c-.6.4-.9.8-1 1s-.1.7-.1 1.2c0 .6.1 1 .1 1.2.1.2.2.3.4.3s.4-.1.4-.2c.1-.2.1-.5.1-1.1v-2.4zm8.6-7.8v1.9h1v1.9h-1v6.4c0 .8.1 1.2.1 1.3s.4.1 1 .1v1.9H70c-.8 0-1.4-.1-1.8-.1-.3-.1-.7-.2-.9-.5-.3-.2-.4-.6-.5-.8-.1-.3-.1-1-.1-2.3v-6h-.8v-1.9h.8V20h3.6zm10 7.7h-4.6v2.5c0 .6.1.9.1 1 .1.2.2.2.4.2.3 0 .4-.1.6-.3.1-.2.1-.6.1-1.2v-1.5h3.4v.9c0 .7-.1 1.3-.1 1.7-.1.4-.3.8-.7 1.3-.3.4-.8.8-1.3 1-.5.2-1.2.3-1.9.3s-1.4-.1-2-.3c-.6-.2-1-.5-1.4-.9-.3-.4-.6-.8-.7-1.3s-.2-1.1-.2-2v-3.5c0-1 .2-1.9.4-2.4.3-.6.7-1 1.4-1.4.6-.3 1.4-.5 2.2-.5 1 0 1.8.2 2.5.6.7.4 1.1.9 1.4 1.5.3.6.4 1.5.4 2.7v1.6zm-3.7-1.9v-.9c0-.6-.1-1-.1-1.2s-.2-.3-.4-.3-.4.1-.4.2c-.1.2-.1.6-.1 1.2v.9h1zm8.4-4.2l-.1 1.5c.6-1.1 1.3-1.7 2.3-1.8v4.1c-.7 0-1.2.1-1.4.3-.3.2-.5.4-.6.7-.1.3-.1 1-.1 2.2v4.7h-3.6V21.6H85z"/><path class="st2" d="M102.9 20.9c-.9 4.7-1.4 9.4-1.5 14.1-1.4-.1-2.8-.2-4.1-.4-.3-1.6-.7-3.9-1-6.6l-.4 3.5c-.1.9-.2 1.9-.3 2.8-1.4-.1-2.8-.3-4.1-.5-.8-4.2-1.3-8.3-1.6-12.1l3.3-.3c0 .3.1 2.7.7 7.3.1-.5.3-2.9 1.1-7.4l3.1-.2c.1 2.6.2 5.2.5 7.8.1-2.3.5-4.9 1.1-7.9 1 0 2.1 0 3.2-.1zm4.1 5.5h-3.6v-1c0-1.1.1-2 .3-2.6s.7-1.2 1.4-1.6c.7-.5 1.6-.7 2.6-.8 1.3-.1 2.3.2 2.9.7.7.5 1 1.2 1.2 2 .1.8.2 2.4.2 4.9v7.4c-1.2 0-2.5-.1-3.7-.1V34c-.3.5-.5.9-.9 1.2-.4.3-.8.3-1.3.3-.7 0-1.2-.3-1.8-.7-.5-.5-.9-1.4-.9-2.9v-1.2c0-1 .1-1.8.5-2.2s1-.9 2.2-1.4c1.2-.6 1.9-1 2-1.2.1-.2.1-.6.1-1.2 0-.8-.1-1.2-.1-1.5-.1-.3-.3-.3-.5-.3-.3 0-.4.1-.5.3-.1.2-.1.7-.1 1.5v1.7zm1.2 2c-.6.5-.9 1-1 1.3-.1.3-.1.9-.1 1.5 0 .8.1 1.2.1 1.4.1.2.3.3.5.3s.4-.1.5-.3c.1-.2.1-.7.1-1.4-.1-.8-.1-1.8-.1-2.8zm9.1-9.7v2.4h1v2.3h-1v7.9c0 1 .1 1.5.1 1.6.1.1.5.1 1 .1v2.4c-.5 0-1 0-1.6.1-.9 0-1.5 0-1.9-.1-.4-.1-.7-.3-1-.6-.3-.3-.5-.7-.5-1-.1-.4-.1-1.3-.1-2.8v-7.5h-.8V21h.8v-2.4c1.5.1 2.7.1 4 .1zm10.3 7.6H124v-1.6c0-.6-.1-1-.1-1.2-.1-.2-.2-.3-.5-.3-.2 0-.3.1-.5.3-.1.2-.1.6-.1 1.2v6.8c0 .5.1.9.2 1.2.1.3.3.4.5.4s.4-.1.5-.4c.1-.3.1-.8.1-1.5v-1.7c1.1 0 2.2-.1 3.4-.1 0 1.1-.1 1.9-.1 2.5-.1.5-.3 1.1-.7 1.8-.3.6-.8 1.1-1.4 1.4-.6.3-1.2.5-2.1.6-1 .1-1.9-.1-2.6-.5s-1-1-1.3-1.8c-.3-.8-.4-1.9-.4-3.3v-4.2c0-1.2.1-2.2.3-2.8.2-.7.7-1.2 1.4-1.6.7-.5 1.6-.7 2.6-.7 1 .1 1.8.3 2.6.9.7.5 1.2 1.1 1.4 1.8.3.5.4 1.5.4 2.8zm5-7.8l.2 3.5c.3-.3.7-.5 1-.7.4-.1.8-.2 1.2-.1.7.1 1.2.3 1.7.7s.8.8.9 1.2c.1.5.2 1.2.2 2.3 0 2.8-.1 5.5-.3 8.2-1.3.2-2.6.3-3.9.5.2-3 .3-6 .3-9 0-.7-.1-1.2-.1-1.4-.1-.2-.3-.3-.5-.3s-.4.1-.5.3c-.1.2-.1.7-.1 1.3.1 3.1-.1 6.2-.3 9.3-1.3.1-2.6.3-3.9.4.5-5.6.5-11.1 0-16.6 1.5.2 2.8.3 4.1.4z"/><path class="st4" d="M56.3 49.4c4.7-1.4 8.9-3.7 13.6-5.2 4.3-1.4 8.5-3 12.8-4.7-.3-.2-.6-.5-.6-.5-1.6.8-3.5 1.6-5.2 2.2-2.4.8-5.2 1.6-7.6 2.8-4.1 1.4-8.5 3-12.5 4.9-1.6.5-3.3 1.1-4.9 1.6-2.4.8-5.2 1.6-7.3 3 2.8-.8 5.4-1.9 8.2-3 1.1-.2 2.4-.6 3.5-1.1zm4.7 0c-.3.1-.5.2-.7.3h.1l.6-.3zm23.3-12.8c1-.1 2-.5 2.9-.9-.9.3-1.9.6-2.9.9z"/><path class="st4" d="M82.7 38.3h1.1c.5-.3.3-.5 0-.8.3 0 .5 0 .8.3.3 0 .3-.3.3-.5l.3.3.3-.3.3.3c.3 0 .3-.3.3-.5h.9c1 0 2.2.3 2.8-1.1 0-.3-.3-.5-.5-.5-.7.1-1.3.3-2 .5-.9.4-1.9.7-2.9.9-.6.1-1.2.3-1.9.3-.6-.3-.1.8.2 1.1zm.3 2.6c-3.8 1.4-7.6 2.8-11.4 4.1-.3 0-.3.5-.5.5-3.5 1-6.7 2.5-10 3.8-.2.1-.5.2-.7.3H59c-4.9 2.4-10.4 3.8-15.2 6.2v.5c3.8-1.4 7.6-3 11.4-4.3 2.4-.5 4.3-1.9 6.8-2.4 2.8-.5 5.2-1.6 7.9-2.8 4.3-1.8 8.9-2.9 13.3-5 0-.3 0-.9-.2-.9z"/><path class="st2" d="M113.9 1C99.7 1 88.2 12.6 88.2 26.7c0 2.8.5 5.5 1.2 8-.7.3-1.4.7-2.2 1 .7-.2 1.4-.3 2-.5.3 0 .5.3.5.5-.5 1.4-1.8 1.1-2.8 1.1h-1.1c0 .3 0 .5-.3.5l-.2-.3-.3.3-.3-.3c0 .3 0 .5-.3.5-.3-.3-.5-.3-.8-.3.3.3.5.5 0 .8h-1.1c-.3-.3-.8-1.4-.3-1.4.7-.1 1.2-.2 1.9-.3-.3.1-.7.1-1 .1-.3 0-.5-.3-.8-.3 0 .3 0 .5-.3.5s-.5-.3-.5-.3c-4.9 1.4-9.2 3-13.6 4.9-1.9.8-2.2.9-5.4 2.2-3.8 1.4-4.1 1.5-5.5 2-2.6.9-3.5 1.2-5.6 2C46 49.6 45 50 36.3 53.5c-.3 1.9.5 3.8 2.2 5.2 1.6-.5 3.3-1.4 4.9-1.9 1.7-.5 2.2-.7 3.3-1.1 3-1.1 5.2-1.9 7.9-2.8 3.3-1.4 6-2.7 9.8-3.5 6.2-2.8 13.2-5.4 19.7-7.5.2 0 .4-.1.7-.5.7-1-.9-.1.8-.9l5.3-2.4c4.3 8.3 12.9 14 22.9 14 14.2 0 25.7-11.5 25.7-25.7S128 1 113.9 1zM52 50.5c1.6-.5 3.3-1.1 4.9-1.6C61 47 65.4 45.3 69.4 44c2.4-1.1 5.2-1.9 7.6-2.8 1.6-.5 3.5-1.4 5.2-2.2l.5.5c-4.3 1.6-8.5 3.3-12.8 4.7-4.7 1.4-9 3.8-13.6 5.2-1.1.5-2.4.8-3.5 1.1-2.8 1.1-5.4 2.2-8.2 3 2.2-1.3 4.9-2.2 7.4-3zm10-.8c-2.4.5-4.3 1.9-6.8 2.4-3.8 1.4-7.6 3-11.4 4.3v-.5c4.9-2.4 10.4-3.8 15.2-6.2h1.3c.3-.1.5-.2.7-.3 3.3-1.3 6.4-2.8 10-3.8.3 0 .3-.5.5-.5 3.8-1.4 7.6-2.8 11.4-4.1.1 0 .2.2.3.4-.4.1-.4.4-.4.4l.4.1c-4.3 2-8.9 3.1-13.3 5-2.7 1.1-5.1 2.2-7.9 2.8zm22.2-9s.2.7-.5.7c-.3-.8-.7-1.8 0-2 1.1-.3 1.9-.8 3-1.1 1.1-.5 2.4-.8 3.3-1.6l.2.2c.1.3.3.6.4.9l-6.4 2.9zM113.9 52c-14 0-25.3-11.3-25.3-25.3S99.9 1.4 113.9 1.4s25.3 11.3 25.3 25.3S127.8 52 113.9 52z"/></svg>